<?xml version="1.0" standalone="no"?>
<!DOCTYPE svg PUBLIC "-//W3C//DTD SVG 20010904//EN"
 "http://www.w3.org/TR/2001/REC-SVG-20010904/DTD/svg10.dtd">
<svg version="1.0" xmlns="http://www.w3.org/2000/svg"
 width="154.000000pt" height="154.000000pt" viewBox="0 0 154.000000 154.000000"
 preserveAspectRatio="xMidYMid meet">
<metadata>
Created by potrace 1.11, written by Peter Selinger 2001-2013
</metadata>
<g transform="translate(0.000000,154.000000) scale(0.100000,-0.100000)"
fill="#000000" stroke="none">
<path d="M0 1169 l0 -370 23 6 c18 6 74 29 98 42 4 1 -2 -30 -12 -69 -11 -39
-19 -82 -19 -95 0 -23 14 -31 24 -14 3 5 17 11 31 13 13 3 22 1 19 -3 -3 -5 1
-9 9 -9 17 0 64 -115 81 -200 3 -14 3 19 0 74 -4 68 -2 96 5 91 6 -3 11 -19
11 -36 0 -16 5 -29 10 -29 6 0 10 12 10 28 0 21 2 24 10 12 5 -8 10 -36 10
-62 0 -27 5 -48 10 -48 6 0 8 11 4 25 -3 14 -2 25 4 25 5 0 10 -10 11 -22 4
-69 7 -83 18 -83 24 0 28 -20 33 -153 4 -77 12 -153 20 -173 10 -28 11 -46 3
-78 l-11 -41 529 0 c291 0 529 2 529 3 0 24 -87 293 -106 326 -13 24 -24 45
-24 47 0 2 19 7 41 10 35 6 43 12 56 43 17 40 13 105 -13 206 -10 36 -13 76
-9 101 l6 42 38 -9 c21 -5 50 -13 65 -19 l26 -10 0 400 0 400 -770 0 -770 0 0
-371z m701 -434 c-7 -30 -7 -30 -14 -5 -4 14 -1 27 6 32 16 10 17 6 8 -27z
m69 10 c0 -14 -30 -75 -36 -75 -4 0 -4 3 -1 6 3 4 2 15 -3 25 -13 24 -2 49 21
49 10 0 19 -2 19 -5z m-512 -53 c-1 -10 1 -23 5 -29 5 -8 3 -13 -6 -13 -10 0
-15 11 -15 35 0 19 4 32 9 29 6 -3 9 -13 7 -22z m530 -108 c10 -19 9 -22 -13
-26 -21 -4 -30 3 -55 42 -29 45 -37 79 -24 93 7 7 72 -72 92 -109z m-446 6
c-2 -16 -8 -30 -13 -30 -5 0 -6 7 -4 15 3 8 7 22 10 30 8 25 12 17 7 -15z
m498 -407 c-1 -5 -7 -19 -14 -32 l-13 -24 -5 26 c-3 15 -3 29 0 32 8 8 32 6
32 -2z"/>
<path d="M81 634 c0 -11 3 -14 6 -6 3 7 2 16 -1 19 -3 4 -6 -2 -5 -13z"/>
<path d="M108 463 c-62 -4 -85 -26 -52 -50 25 -18 55 -17 48 2 -5 11 1 15 18
15 13 0 28 -4 34 -9 17 -17 93 -16 110 1 16 15 14 16 -20 8 -39 -9 -48 -8 -84
4 -22 7 -22 8 -5 22 10 7 16 13 13 12 -3 -1 -30 -3 -62 -5z"/>
</g>
</svg>
